<svg id="Capa_1" enable-background="new 0 0 512 512" height="512" viewBox="0 0 512 512" width="512" xmlns="http://www.w3.org/2000/svg"><g><g><ellipse cx="107.991" cy="191.996" fill="#ffedbe" rx="100.006" ry="100.006" transform="matrix(.707 -.707 .707 .707 -104.132 132.595)"/></g><g><path d="m107.991 91.99c-22.273 0-42.775 7.371-59.396 19.683 7.356 9.931 20.431 13.867 31.956 9.403 8.659-3.354 17.916-5.085 27.44-5.085 41.909 0 76.005 34.096 76.005 76.005h24.001c0-55.232-44.774-100.006-100.006-100.006z" fill="#fff"/></g><g><path d="m107.991 299.987c-59.547 0-107.991-48.445-107.991-107.991s48.444-107.991 107.991-107.991 107.991 48.444 107.991 107.991-48.445 107.991-107.991 107.991zm0-200.013c-50.741 0-92.022 41.281-92.022 92.022s41.281 92.022 92.022 92.022 92.022-41.281 92.022-92.022-41.281-92.022-92.022-92.022z" fill="#ffaf82"/></g><g><path d="m434.364 246.014c-7.225-1.532-12.977-6.538-15.784-13.369-10.764-26.195-36.497-44.649-66.574-44.649-5.053 0-9.975.538-14.726 1.544-7.38 1.563-14.832-1.322-19.868-6.939-19.035-21.233-46.651-34.607-77.413-34.607-40.566 0-75.626 23.263-92.756 57.148-3.981 7.875-10.295 14.152-18.167 18.137-35.008 17.725-58.661 54.595-57.006 96.893 2.204 56.345 50.76 99.839 107.148 99.839h234.083c47.564 0 88.578-36.588 90.63-84.108 1.901-44.02-28.566-81.193-69.567-89.889z" fill="#bef2f5"/></g><g><g><path d="m299.538 198.621c10.891 12.149 27.236 17.685 42.702 14.399 3.219-.68 6.504-1.023 9.766-1.023 19.525 0 36.944 11.684 44.37 29.76 5.84 14.224 18.181 24.595 33.01 27.736h-.004c23.654 5.018 41.676 22.536 48.056 44.691 3.067 10.649 13.027 17.821 24.109 17.821h2.376c-.01-42.29-29.778-77.552-69.554-85.99-7.227-1.533-12.981-6.537-15.789-13.37-10.763-26.195-36.497-44.65-66.574-44.65-5.053 0-9.976.538-14.728 1.544-7.38 1.563-14.832-1.323-19.867-6.939-19.035-21.233-46.651-34.607-77.412-34.607v1.833c0 11.915 8.433 21.728 19.967 24.716 15.121 3.916 28.948 12.227 39.572 24.079z" fill="#fff"/></g></g><path d="m436.02 238.204c0-.001 0-.001 0 0-4.542-.963-8.207-4.096-10.055-8.594-12.381-30.13-41.412-49.599-73.959-49.599-5.488 0-10.999.577-16.381 1.717-4.355.921-8.94-.745-12.269-4.458-21.229-23.68-51.612-37.262-83.358-37.262-42.423 0-80.695 23.577-99.882 61.53-3.2 6.331-8.265 11.384-14.648 14.616-38.992 19.743-63.085 60.694-61.378 104.328 1.141 29.188 13.865 56.395 35.826 76.612 21.646 19.926 49.809 30.9 79.301 30.9h234.083c25.186 0 49.256-9.352 67.778-26.333 18.804-17.239 29.752-40.471 30.829-65.414 2.033-47.054-29.883-88.287-75.887-98.043zm-303.337-7.802c9.441-4.78 16.939-12.269 21.686-21.659 9.434-18.662 24.252-33.259 42.028-42.327 2.391 8.274 3.616 16.846 3.616 25.58 0 50.741-41.281 92.022-92.022 92.022-7.287 0-14.491-.853-21.498-2.53 8.44-21.739 24.659-40.185 46.19-51.086zm363.271 105.156c-.893 20.681-10.008 39.977-25.666 54.333-15.569 14.274-35.807 22.135-56.986 22.135h-234.084c-25.474 0-49.796-9.475-68.485-26.68-18.813-17.318-29.71-40.575-30.685-65.486-.306-7.833.369-15.563 1.917-23.049 8.479 2.099 17.202 3.176 26.025 3.176 59.546 0 107.991-48.444 107.991-107.991 0-10.816-1.609-21.424-4.738-31.639 9.147-2.859 18.816-4.38 28.755-4.38 27.214 0 53.263 11.646 71.468 31.953 7.081 7.899 17.607 11.507 27.466 9.421 4.296-.91 8.694-1.371 13.073-1.371 26.046 0 49.279 15.583 59.189 39.7 3.829 9.317 11.871 16.1 21.513 18.145 38.342 8.131 64.941 42.505 63.247 81.733z" fill="#00abd5"/><g><path d="m335.338 427.995h-156.12c-29.492 0-57.654-10.974-79.301-30.9-21.961-20.216-34.684-47.424-35.826-76.612-1.132-28.945 8.776-56.805 27.9-78.448 2.92-3.305 7.965-3.615 11.27-.696 3.305 2.92 3.616 7.966.696 11.27-16.389 18.548-24.881 42.431-23.91 67.25.975 24.911 11.872 48.169 30.685 65.486 18.69 17.205 43.012 26.68 68.485 26.68h156.12c4.41 0 7.984 3.575 7.984 7.984s-3.573 7.986-7.983 7.986z" fill="#283246"/></g></g></svg>