<svg id="Layer_1" enable-background="new 0 0 511.895 511.895" height="512" viewBox="0 0 511.895 511.895" width="512" xmlns="http://www.w3.org/2000/svg" xmlns:xlink="http://www.w3.org/1999/xlink"><linearGradient id="SVGID_1_" gradientUnits="userSpaceOnUse" x1="3.607" x2="508.288" y1="255.947" y2="255.947"><stop offset="0" stop-color="#9dd6fc"/><stop offset="1" stop-color="#d17ff7"/></linearGradient><path d="m493.709 299.033-78.662-22.176c1.751-13.703 1.66-28.217-.262-41.851l78.924-22.25c25.254-8.217 14.952-44.687-10.854-38.499l-78.615 22.163c-7.824-18.765-19.175-35.699-33.219-49.965l50.849-63.082c6.932-8.6 5.58-21.191-3.02-28.123-8.601-6.932-21.19-5.581-28.123 3.02l-51.147 63.452c-18.071-10.82-38.481-18.105-60.273-20.894v-80.933c-1.056-26.536-38.953-26.516-40 0v80.929c-21.978 2.807-42.55 10.175-60.734 21.123l-51.905-63.753c-6.975-8.566-19.571-9.856-28.137-2.882-8.565 6.974-9.856 19.571-2.882 28.137l51.543 63.309c-14.035 14.328-25.353 31.326-33.113 50.151l-78.596-21.533c-25.87-5.994-35.868 30.562-10.569 38.578l78.795 21.588c-1.465 10.833-1.788 22.194-.932 33.213-36.169 19.957-58.559 61.393-53.9 102.662-73.375 31.029-52.851 139.163 27.727 140.479h268.877c78.495-1.974 93.639-108.665 18.335-131.396-.338-2.005-.733-3.991-1.181-5.956 18.863-16.304 33.233-36.484 42.334-58.968l77.887 21.958c10.343 3.003 21.714-3.101 24.676-13.823 2.997-10.633-3.191-21.681-13.823-24.678zm-120.41 145.436c0 15.123-12.479 27.426-27.818 27.426h-268.877c-42.527-1.461-44.832-60.981-2.811-65.723 6.041-.436 11.559-3.585 15.006-8.565s4.452-11.253 2.733-17.061c-2.206-7.45-3.233-13.542-3.233-19.17.71-69.042 94.377-91.894 127.34-31.093 4.768 8.969 15.502 12.941 24.959 9.233 39.881-19.168 85.017 14.396 84.701 58.47.05 10.947 8.892 19.821 19.839 19.909 15.528.124 28.161 12.045 28.161 26.574zm-28.188-108.469c-22.009-31.162-64.964-49.862-103.451-39.018-22.52-30.016-61.343-46.258-99.348-41.225.431-64.148 52.75-116.201 116.997-116.201 100.982-.484 155.193 123.07 85.802 196.444z" fill="url(#SVGID_1_)"/></svg>